# xmcd CD database file
#
# Track frame offsets:
#	150
#	30785
#	72302
#	109195
#	146535
#	180992
#
# Disc length: 2888 seconds
#
# Revision: 0
# Processed by: cddbd v1.5PL3 Copyright (c) Steve Scherf et al.
# Submitted via: CDex 1.50
#
DISCID=450b4606
DTITLE=Jazz at Messey Hall - Jazz at Messey Hall
DYEAR=1900
DGENRE=Jazz
TTITLE0=Wee
TTITLE1=Hot House
TTITLE2=A Night In ATunisia
TTITLE3=Perdido
TTITLE4=Salt Peanuts
TTITLE5=All the things you are
EXTD=
EXTT0=
EXTT1=
EXTT2=
EXTT3=
EXTT4=
EXTT5=
PLAYORDER=
